PathFileType	4	(X/Y/Z)	RBDS015\RBDS015runT35.trc
DataRate	CameraRate	NumFrames	NumMarkers	Units	OrigDataRate	OrigDataStartFrame	OrigNumFrames
150.000000	150.000000	6	33	mm	150.000000	2812	4500
Frame#	Time	L.ASIS			L.Heel.Bottom			L.Heel.Lateral			L.Heel.Top			L.Iliac.Crest			L.MT1			L.MT5			L.PSIS			L.Shank.Bottom.Lateral			L.Shank.Bottom.Medial			L.Shank.Top.Lateral			L.Shank.Top.Medial			L.Thigh.Bottom.Lateral			L.Thigh.Bottom.Medial			L.Thigh.Top.Lateral			L.Thigh.Top.Medial			R.ASIS			R.ASY			R.Heel.Bottom			R.Heel.Lateral			R.Heel.Top			R.Iliac.Crest			R.MT1			R.MT5			R.PSIS			R.Shank.Bottom.Lateral			R.Shank.Bottom.Medial			R.Shank.Top.Lateral			R.Shank.Top.Medial			R.Thigh.Bottom.Lateral			R.Thigh.Bottom.Medial			R.Thigh.Top.Lateral			R.Thigh.Top.Medial			
		X1	Y1	Z1	X2	Y2	Z2	X3	Y3	Z3	X4	Y4	Z4	X5	Y5	Z5	X6	Y6	Z6	X7	Y7	Z7	X8	Y8	Z8	X9	Y9	Z9	X10	Y10	Z10	X11	Y11	Z11	X12	Y12	Z12	X13	Y13	Z13	X14	Y14	Z14	X15	Y15	Z15	X16	Y16	Z16	X17	Y17	Z17	X18	Y18	Z18	X19	Y19	Z19	X20	Y20	Z20	X21	Y21	Z21	X22	Y22	Z22	X23	Y23	Z23	X24	Y24	Z24	X25	Y25	Z25	X26	Y26	Z26	X27	Y27	Z27	X28	Y28	Z28	X29	Y29	Z29	X30	Y30	Z30	X31	Y31	Z31	X32	Y32	Z32	X33	Y33	Z33	

2813	18.74666666666667	2146.987821693446	1020.253792102895	937.3490271124689	1474.697935656304	468.4800908356981	990.8669049329404	1488.652339659434	451.8389648569216	943.9013010814859	1515.718920889203	459.4551976512839	988.2084013883153	2088.690335239387	1114.607571132952	895.0413177617766	1486.812352872922	255.3886321606978	989.7093761864808	1467.32039673668	304.7588195858198	888.4100841542556	1964.389050262179	1063.832353557164	991.7185734717443	1627.302715988669	426.8987430330377	911.5663704801213	1615.56306777666	468.8514089552703	938.5606964013469	1702.866116620717	453.0725720598743	898.6994971345383	1694.708353886364	496.8528112902291	927.4416722012477	2010.772480369053	631.8518162182177	874.6051100592264	1950.760086276894	638.3706444123612	906.2628491886348	2018.800343938374	741.8833309678687	865.6975548304119	1956.313980963672	748.2368133884852	901.858395192028	2132.757453834154	1017.797746237087	1158.208394641654	2290.776749042317	85.28403880170663	1099.665402378806	2109.968547944645	28.10063325524515	1072.534659932842	2132.060100554003	48.6463425069112	1116.147166280354	2120.111499550582	74.01222073332862	1072.038892165034	2051.447904617974	1097.69692332962	1205.127295207865	2326.061115127856	44.94547792185575	1056.865552904209	2273.880376680676	36.37918452111322	1165.708445727472	1953.382255167273	1066.383071515041	1084.056347560015	2189.256417492897	179.745543076776	1139.138463112417	2141.451639562458	186.3178471966768	1111.838709294625	2187.990766043228	259.0024656217602	1156.760898873582	2142.178443119897	264.8079537497239	1128.290941274406	2153.563095381184	675.011949737366	1200.728251994978	2103.071143480567	647.7660625018309	1155.36081705344	2094.74953417675	766.8932175436397	1207.312381671378	2045.860343576222	741.5391147086204	1165.206745783093	
2814	18.75333333333333	2145.211459852401	1013.986716764954	937.7159380354052	1485.940303556557	471.76946263869	988.6174014384463	1500.387475605478	454.6201412496388	942.0039780983524	1526.973836107805	462.4548916154579	986.5109023024751	2086.627416187023	1106.538085336548	894.5509595249865	1496.618782024168	258.5856681926342	989.8625023272215	1478.795264955615	307.0629541275719	887.8326535302583	1962.566088719313	1057.472672978372	990.0611698912759	1639.379488459165	426.6583076641878	910.8951937019939	1628.510186212269	469.3198354542054	937.0783496519188	1715.600148333124	450.786811572342	897.8486441217068	1708.326056368925	495.2850711890521	925.772706596925	2019.671245670738	625.1822238851289	874.1082775734922	1959.166904473079	629.8967872136034	905.2159902818756	2024.394267245596	735.3871032369926	864.9755836930735	1961.42121425558	739.8802370291795	900.5752073977792	2130.018863815488	1014.145180536614	1158.588705498908	2268.547987275365	83.39532041649831	1097.665596909444	2086.606632358727	29.00543955412922	1072.02156395018	2109.067973110893	50.00063579105572	1115.242144334822	2097.821181131234	74.92532626638926	1070.65118366806	2048.66788541166	1089.92413111462	1204.774199929477	2303.459832212582	42.57516090359185	1055.926028967745	2250.685484816724	36.40287247573136	1165.281723837374	1950.879178029363	1060.905613496182	1081.944067398093	2173.233410714575	179.1771786370309	1137.951472281602	2125.018101922346	188.1588658664698	1111.814311053291	2176.056314924718	258.4214253836536	1156.177185482456	2129.785847629988	266.4938214446655	1128.769153293085	2151.888030714132	671.9932620153739	1201.293167190812	2101.859101548881	644.7345923371861	1155.396220829525	2092.816853561905	763.7897012893517	1207.584812721209	2044.321068801859	738.3869920993116	1165.060615761527	
2815	18.76	2143.249902468207	1007.553354897122	938.1326748640365	1497.713551976959	473.8350120226168	986.0605987646358	1512.783157192368	456.1004768876046	939.8928686660266	1538.806727343824	464.4618379871354	984.5082186538876	2084.663333639299	1098.494682832219	894.0706342428242	1508.087436417304	260.746923640068	990.4019122254485	1491.767502373941	307.8534757206516	887.5195639527795	1960.655958861314	1051.880385575617	988.3950909845576	1652.335114763665	425.784254338673	910.2596318199722	1642.193046190092	469.1230867696443	935.5598877626946	1729.111990605346	448.1001634335877	897.0698735478245	1722.566974723074	493.3073553594057	924.09943917842	2028.982007060844	619.1141779316947	873.734998789007	1968.021292291615	621.9378905039524	904.2648020642906	2030.226394885972	729.3848335469733	864.3369508341311	1966.795440102697	731.9207341364045	899.3141977589039	2127.315109048701	1010.733195361165	1159.072700724268	2245.787233165316	82.27507888424455	1096.323674459237	2063.218247371192	29.8634067315087	1071.816283119488	2085.949512940187	51.22234075561281	1114.733912028639	2075.21133868389	75.78741425264327	1069.815473247579	2045.748429020976	1082.64213620143	1204.436730550236	2280.502899649411	41.39775945803265	1055.469159984423	2227.341736710362	36.79300213345938	1165.183497461163	1948.480941707503	1056.07824071488	1079.850105353687	2156.203852035175	178.8135305388082	1137.235675592126	2107.831431561942	190.067151200432	1111.998443370539	2162.874921948325	257.8965070371265	1155.882757715009	2116.385223959244	268.0997969051476	1129.321330667711	2149.127482120898	668.9084650641017	1201.845196749654	2099.445072019457	641.8811368350518	1155.427554697843	2090.185394155178	760.8745170956108	1207.895901516075	2042.005065398756	735.6477902929578	1164.925619741544	
2816	18.76666666666667	2141.130015382096	1001.111278870363	938.5200106729783	1509.934783649075	474.6321256092717	983.2657246425063	1525.74199711651	456.2521210305983	937.6282964369382	1551.130173791254	465.4259524011529	982.2556201380394	2082.73681789502	1090.79347588703	893.6035201326944	1521.104575094358	261.8148393484482	991.326391744142	1506.099157450298	307.1243717398037	887.4974295243462	1958.691152479623	1047.18055091824	986.8387438596418	1666.075576894188	424.3089619982115	909.6706325952482	1656.495694903413	468.2802361527782	934.0512245889787	1743.306127324686	445.1010007814892	896.3877546292322	1737.319102786473	490.9874564026928	922.4790273160827	2038.683642505222	613.8061531900145	873.4789476371008	1977.335108974786	614.6456713238837	903.4378549901043	2036.285104896828	724.0214982292033	863.8013218672719	1972.450516365303	724.4935770282832	898.1188738483776	2124.74716584856	1007.565245441477	1159.631486752446	2222.649120472523	81.72200943063648	1095.607908295396	2039.868950438966	30.59131357365937	1071.866534772299	2062.774402534154	52.21823947132983	1114.570890853459	2052.377937386513	76.51929883661737	1069.46980275966	2042.747475265862	1076.09536982578	1204.145884511232	2257.323950890418	41.10585692223027	1055.449481900077	2203.929460553646	37.3477361700116	1165.381484885346	1946.245713692433	1051.993951597119	1077.90788297937	2138.196891227484	178.4865369862938	1136.946508964184	2089.918334469542	191.8411920482278	1112.317989168966	2148.414411028243	257.2747410267754	1155.838353450415	2101.945274684034	269.4457689639696	1129.885334056165	2145.245992371996	665.7772100574171	1202.362070037333	2095.722613431502	639.2164147371528	1155.516990798224	2086.856806475959	758.1823562263568	1208.239739304682	2038.8647524468	733.3556482435198	1164.852526056678	
2817	18.77333333333333	2138.884266531401	994.8535334982425	938.8008502211848	1522.520294576613	474.1093919186883	980.3309959718362	1539.162819254631	455.0534902968575	935.2936164269645	1563.850970965243	465.288743372383	979.8392371564826	2080.788376100304	1083.769049362913	893.1590278769525	1535.548373158728	261.7360290868011	992.6168686271411	1521.645083766777	304.8983265600797	887.7812673823192	1956.704435426726	1043.450148939407	985.5121407728756	1680.491253964879	422.2671725659372	909.1455309019748	1671.286845922694	466.8104975320729	932.6089622601924	1758.069623190763	441.8801387141143	895.8293966830676	1752.451630166475	488.3936079164199	920.9757763254876	2048.735628251653	609.4061306942307	873.3331551398467	1987.093354594123	608.1639028879329	902.7484602179342	2042.54694434438	719.4330020590129	863.389051966559	1978.382599813402	717.7283017098958	897.0225357102981	2122.401128648552	1004.635147589679	1160.217882254376	2199.257739751078	81.53707720613272	1095.428156915032	2016.571303047974	31.14327783557307	1072.103967004078	2039.568208327953	52.94521849766823	1114.677586347242	2029.378609382517	77.07804015128592	1069.515292826315	2039.758556617377	1070.497433877441	1203.927647679821	2234.010120967079	41.37851268514717	1055.779910546109	2180.483854449955	37.90440971849662	1165.814618613014	1944.2156784593	1048.718092442105	1076.250986106628	2119.277872712153	178.07253877125	1136.999408417754	2071.315822494556	193.3378549538847	1112.697857571855	2132.707893589019	256.4538920498765	1155.979012515835	2086.475160909731	270.4145583685736	1130.406851193484	2140.260574134905	662.6396223289752	1202.832689996857	2090.655949556584	636.7585862018243	1155.726468863381	2082.859351659138	755.7488169003791	1208.61441737294	2034.890097179564	731.5321674847127	1164.8927353518	
2818	18.78	2136.54950613032	989.0041457175499	938.9112861054197	1535.386088871285	472.2097319094826	977.3787083211207	1552.942746006326	452.4893665851977	932.9910815084813	1576.87157662127	463.9872429837814	977.3710619485952	2078.768851568597	1077.742478439039	892.7525124950781	1551.300166074702	260.4647169349917	994.2371004605155	1538.264116794837	301.224853804995	888.3727597085006	1954.726265507466	1040.715483265205	984.5237820478284	1695.458928590119	419.6950831918835	908.7088372546182	1686.423535071065	464.7328031737445	931.2982883819939	1773.274259072526	438.5262763363796	895.4235262433549	1767.817898445222	485.5914856831478	919.6579604681739	2059.076438088594	606.0446044407693	873.2911102812729	1997.250248275095	602.6230919073679	902.1936792252416	2048.975077305526	715.740291067495	863.119091178999	1984.567379339413	711.7447652151989	896.0457494134728	2120.341335000137	1001.93581650709	1160.774201195758	2175.711148393922	81.54800615124526	1095.656064793321	1993.304230455699	31.51580696066107	1072.45339926852	2016.32926718353	53.41245758965901	1114.966065570239	2006.245390072054	77.46151189424289	1069.832165994954	2036.906177919853	1066.008998335338	1203.799779521713	2210.61113303137	41.92268091999942	1056.348646669611	2157.010173541071	38.35257984771228	1166.403516715985	1942.415700941817	1046.285021563911	1074.998067614893	2099.547734977546	177.5086674540843	1137.284742919784	2052.077340155945	194.4878797934047	1113.069639605649	2115.850617823151	255.396201236824	1156.224321472027	2070.027401756607	270.9642490765965	1130.842955248191	2134.234338113824	659.5560756676231	1203.252499840632	2084.280140353545	634.5383902590384	1156.10328786224	2078.243586805889	753.6110835872604	1209.01787561925	2030.108188324607	730.1912211460566	1165.087329123884	
